<svg width="96" height="21" viewBox="0 0 96 21" fill="none" xmlns="http://www.w3.org/2000/svg">
<path d="M3.72033 15.8688C3.72033 16.0985 3.92702 16.3052 4.15667 16.3052H6.91247C7.14212 16.3052 7.3488 16.0985 7.3488 15.8688V3.60551H10.6328C10.8854 3.60551 11.0691 3.39882 11.0691 3.16917V0.665984C11.0691 0.436335 10.8854 0.22965 10.6328 0.22965H0.436335C0.18372 0.22965 0 0.436335 0 0.665984V3.16917C0 3.39882 0.18372 3.60551 0.436335 3.60551H3.72033V15.8688Z" fill="black"/>
<path d="M12.0993 8.29037C12.0993 12.8834 15.7508 16.5348 20.3438 16.5348C24.9368 16.5348 28.6112 12.8834 28.6112 8.29037C28.6112 3.69737 24.9368 0 20.3438 0C15.7508 0 12.0993 3.69737 12.0993 8.29037ZM15.7737 8.29037C15.7737 5.76422 17.8406 3.6744 20.3438 3.6744C22.8699 3.6744 24.9368 5.76422 24.9368 8.29037C24.9368 10.7936 22.8699 12.8604 20.3438 12.8604C17.8406 12.8604 15.7737 10.7936 15.7737 8.29037Z" fill="black"/>
<path d="M31.3914 15.8688C31.3914 16.0985 31.5751 16.3052 31.8277 16.3052H34.5376C34.7672 16.3052 34.9739 16.0985 34.9739 15.8688V10.472H37.3852C40.187 10.472 42.5064 8.15258 42.5064 5.30492C42.5064 2.52615 40.187 0.22965 37.3623 0.22965H31.8277C31.5751 0.22965 31.3914 0.436335 31.3914 0.665984V15.8688ZM34.9739 7.11915V3.60551H37.1556C38.1431 3.60551 38.9698 4.34039 38.9698 5.30492C38.9698 6.33834 38.1431 7.11915 37.1556 7.11915H34.9739Z" fill="black"/>
<path d="M41.609 14.8584C41.9994 15.3406 43.1017 16.5348 45.0997 16.5348C47.7866 16.5348 50.0372 14.6976 50.0372 11.5055V0.665984C50.0372 0.436335 49.8535 0.22965 49.6008 0.22965H46.7991C46.5465 0.22965 46.3628 0.436335 46.3628 0.665984V11.4825C46.3628 12.6308 45.6509 13.2278 45.0078 13.2278C44.3878 13.2278 44.1122 13.0212 43.8366 12.7456C43.6529 12.5619 43.4003 12.5848 43.2166 12.7456L41.6549 14.2842C41.5172 14.445 41.4942 14.6746 41.609 14.8584Z" fill="black"/>
<path d="M71.7596 15.8688C71.7596 16.0985 71.9433 16.3052 72.1959 16.3052H77.8912C80.6241 16.3052 82.8976 14.445 82.8976 11.8729C82.8976 9.76013 81.0374 8.63484 79.8203 8.12961C80.8996 7.55549 82.4842 6.26945 82.4842 4.50114C82.4842 2.08982 80.2566 0.22965 77.5467 0.22965H72.1959C71.9433 0.22965 71.7596 0.436335 71.7596 0.665984V15.8688ZM75.3421 6.75171V3.53661H77.1334C78.006 3.53661 78.7409 4.17963 78.7409 5.09823C78.7409 6.01683 78.006 6.75171 77.1334 6.75171H75.3421ZM75.3421 13.0212V9.73716H77.2023C78.0979 9.73716 79.0854 10.4261 79.0854 11.3447C79.0854 12.2863 78.3276 13.0212 77.4319 13.0212H75.3421Z" fill="black"/>
<path d="M85.0174 14.7665C85.5456 15.2947 87.1991 16.5348 90.1845 16.5348C93.5604 16.5348 95.6042 14.1464 95.6042 11.781C95.6042 8.65781 92.7566 7.25694 90.9653 6.54503C89.1511 5.81015 88.4621 5.16713 88.4621 4.31742C88.4621 3.69737 89.0822 3.14621 89.9089 3.14621C91.3098 3.14621 92.9862 4.40928 93.1929 4.52411C93.3996 4.68486 93.813 4.47818 93.9737 4.22556L95.1449 2.45726C95.2368 2.2965 95.2827 1.88313 95.0071 1.72237C94.3182 1.21715 92.481 0 90.0926 0C86.556 0 84.7877 2.2965 84.7877 4.57004C84.7877 7.32584 87.2679 8.86449 89.2429 9.6453C90.8046 10.2654 91.6083 11.0002 91.6083 11.9648C91.6083 12.7685 90.9423 13.3427 90.0237 13.3427C88.508 13.3427 86.8546 12.1255 86.7627 12.0796C86.602 11.9648 86.1656 11.9188 85.9819 12.2174L84.9025 14.1235C84.7188 14.445 84.7877 14.5369 85.0174 14.7665Z" fill="black"/>
<path d="M52.4675 8.29037C52.4675 12.8834 56.119 16.5348 60.712 16.5348C65.305 16.5348 68.9794 12.8834 68.9794 8.29037C68.9794 3.69737 65.305 0 60.712 0C56.119 0 52.4675 3.69737 52.4675 8.29037ZM56.1419 8.29037C56.1419 5.76422 58.2088 3.6744 60.712 3.6744C63.2381 3.6744 65.305 5.76422 65.305 8.29037C65.305 10.7936 63.2381 12.8604 60.712 12.8604C58.2088 12.8604 56.1419 10.7936 56.1419 8.29037Z" fill="#7C3AED"/>
<rect x="64.7468" y="12.2305" width="8.07875" height="3.57724" rx="1.35294" transform="rotate(56.0136 64.7468 12.2305)" fill="#7C3AED"/>
</svg>
